<?xml version="1.0" standalone="no"?>
<!DOCTYPE svg PUBLIC "-//W3C//DTD SVG 20010904//EN"
 "http://www.w3.org/TR/2001/REC-SVG-20010904/DTD/svg10.dtd">
<svg version="1.0" xmlns="http://www.w3.org/2000/svg"
 width="512.000000pt" height="512.000000pt" viewBox="0 0 512.000000 512.000000"
 preserveAspectRatio="xMidYMid meet">

<g transform="translate(0.000000,512.000000) scale(0.100000,-0.100000)"
fill="#000000" stroke="none">
<path d="M1640 4709 c-469 -41 -868 -184 -1082 -387 -71 -68 -114 -134 -139
-213 -18 -58 -19 -112 -19 -1309 0 -1197 1 -1251 19 -1309 89 -286 503 -507
1101 -586 158 -22 478 -30 630 -17 115 10 127 13 148 37 25 29 27 52 11 89
-17 37 -51 44 -174 33 -143 -11 -458 -2 -610 18 -253 33 -462 92 -640 181
-171 84 -287 192 -315 292 -5 21 -10 147 -10 285 l0 247 70 -53 c202 -154 507
-260 895 -313 178 -24 607 -25 786 -1 383 51 699 161 897 312 l72 55 0 -212
c1 -229 3 -238 53 -257 31 -12 73 0 93 27 11 14 13 249 14 1219 0 1151 -1
1204 -19 1262 -88 283 -502 505 -1092 586 -138 19 -542 27 -689 14z m680 -174
c245 -34 458 -93 625 -174 439 -215 443 -500 10 -716 -175 -87 -380 -145 -645
-182 -175 -24 -605 -24 -780 0 -550 77 -935 280 -966 509 -34 245 384 490 961
562 181 23 202 24 450 20 133 -2 278 -10 345 -19z m-1532 -1017 c203 -106 433
-173 737 -214 178 -24 607 -25 786 -1 383 51 699 161 897 312 l72 55 0 -247
c0 -138 -5 -264 -10 -285 -49 -174 -334 -345 -720 -432 -216 -48 -343 -60
-630 -60 -287 0 -414 12 -630 60 -161 36 -277 76 -405 140 -171 84 -287 192
-315 292 -5 21 -10 147 -10 285 l0 247 70 -53 c39 -30 110 -74 158 -99z m0
-800 c203 -106 433 -173 737 -214 178 -24 607 -25 786 -1 383 51 699 161 897
312 l72 55 0 -247 c0 -138 -5 -264 -10 -285 -49 -174 -334 -345 -720 -432
-216 -48 -343 -60 -630 -60 -287 0 -414 12 -630 60 -161 36 -277 76 -405 140
-171 84 -287 192 -315 292 -5 21 -10 147 -10 285 l0 247 70 -53 c39 -30 110
-74 158 -99z"/>
<path d="M875 3271 c-45 -20 -70 -60 -70 -112 0 -42 5 -53 33 -81 28 -28 39
-33 82 -33 43 0 54 5 82 33 28 28 33 39 33 82 0 42 -5 54 -31 81 -33 33 -92
46 -129 30z"/>
<path d="M875 2471 c-45 -20 -70 -60 -70 -112 0 -42 5 -53 33 -81 28 -28 39
-33 82 -33 43 0 54 5 82 33 28 28 33 39 33 82 0 42 -5 54 -31 81 -33 33 -92
46 -129 30z"/>
<path d="M875 1671 c-45 -20 -70 -60 -70 -112 0 -42 5 -53 33 -81 28 -28 39
-33 82 -33 43 0 54 5 82 33 28 28 33 39 33 82 0 42 -5 54 -31 81 -33 33 -92
46 -129 30z"/>
<path d="M2724 1511 c-52 -13 -135 -64 -165 -100 -55 -68 -73 -118 -73 -211
-1 -78 2 -90 33 -148 56 -103 136 -155 266 -171 120 -15 170 -62 170 -161 0
-97 -58 -155 -155 -155 -90 0 -144 49 -159 145 -14 88 -82 120 -138 64 -24
-24 -25 -30 -19 -86 7 -70 54 -166 99 -204 16 -14 53 -37 81 -52 43 -22 64
-26 136 -26 72 0 93 4 136 26 75 40 107 70 145 140 31 58 34 70 34 148 0 78
-3 90 -34 148 -56 103 -136 155 -266 171 -120 15 -170 62 -170 161 0 97 58
155 155 155 90 0 144 -49 159 -145 14 -88 82 -120 138 -64 24 24 25 30 19 86
-7 70 -54 166 -99 204 -78 65 -205 98 -293 75z"/>
<path d="M3525 1511 c-92 -24 -173 -90 -215 -176 l-25 -50 0 -325 0 -325 34
-63 c38 -70 70 -101 143 -138 72 -36 157 -42 236 -15 l63 22 26 -21 c34 -27
74 -25 107 5 32 29 34 72 6 108 l-21 26 21 62 c20 59 21 80 18 363 l-3 301
-34 63 c-38 70 -70 101 -143 138 -54 27 -159 40 -213 25z m163 -178 c14 -10
35 -32 46 -47 20 -26 21 -43 24 -312 2 -156 0 -284 -4 -284 -4 0 -33 25 -65
55 -67 64 -103 72 -144 30 -42 -41 -34 -77 30 -144 30 -32 55 -61 55 -66 0 -4
-21 -5 -46 -2 -50 5 -85 27 -118 71 -20 26 -21 43 -24 299 -2 150 0 286 3 304
7 40 49 91 90 109 40 19 120 12 153 -13z"/>
<path d="M4105 1495 l-25 -24 0 -511 0 -511 25 -24 24 -25 271 0 271 0 24 25
c16 15 25 36 25 55 0 19 -9 40 -25 55 -24 25 -24 25 -240 25 l-215 0 0 455 0
456 -25 24 c-15 16 -36 25 -55 25 -19 0 -40 -9 -55 -25z"/>
</g>
</svg>
